# xmcd
#
# Track frame offsets:
#	150
#	16162
#	36551
#	57378
#	88858
#	110285
#	126374
#	149115
#	169664
#	189172
#	209808
#	238972
#	257815
#	278327
#	299068
#
# Disc length: 4586 seconds
#
# Revision: 1
# Processed by: cddbd v1.5.2PL0 Copyright (c) Steve Scherf et al.
# Submitted via: audiograbber 1.83.01
#
DISCID=f011e80f
DTITLE=Hellbillies - Levande LIVe
DYEAR=2014
DGENRE=Country
TTITLE0=Dirkefri
TTITLE1=Den Redde
TTITLE2=Råka tå ei pil
TTITLE3=Eg æ på gang
TTITLE4=Mot straumen
TTITLE5=Leite etter lykka
TTITLE6=Pille med bråk
TTITLE7=Det ingen andre ser
TTITLE8=Eg gløymer deg aldri
TTITLE9=Leita natt og dag
TTITLE10=Sju
TTITLE11=Reise ilag med deg
TTITLE12=Den finaste eg veit
TTITLE13=Mørkemann
TTITLE14=Røta
EXTD=
EXTT0=
EXTT1=
EXTT2=
EXTT3=
EXTT4=
EXTT5=
EXTT6=
EXTT7=
EXTT8=
EXTT9=
EXTT10=
EXTT11=
EXTT12=
EXTT13=
EXTT14=
PLAYORDER=
